<?xml version="1.0" standalone="no"?>
<!DOCTYPE svg PUBLIC "-//W3C//DTD SVG 20010904//EN"
 "http://www.w3.org/TR/2001/REC-SVG-20010904/DTD/svg10.dtd">
<svg version="1.0" xmlns="http://www.w3.org/2000/svg"
 width="2100.000000pt" height="2100.000000pt" viewBox="0 0 2100.000000 2100.000000"
 preserveAspectRatio="xMidYMid meet">
<metadata>
Created by potrace 1.14, written by Peter Selinger 2001-2017
</metadata>
<g transform="translate(0.000000,2100.000000) scale(0.100000,-0.100000)"
fill="#000000" stroke="none">
<path d="M14367 14604 c-3 -4 -23 -8 -44 -9 -21 -1 -38 -3 -38 -4 0 -1 -22 -4
-50 -6 -54 -3 -134 -11 -205 -18 -25 -3 -83 -8 -130 -12 -47 -4 -90 -11 -96
-16 -6 -5 -13 -6 -17 -3 -3 3 -74 -2 -159 -10 -310 -33 -714 -76 -753 -81
-204 -24 -419 -44 -426 -39 -6 3 -16 1 -23 -5 -7 -6 -28 -10 -47 -10 -19 0
-52 -2 -74 -5 -41 -5 -110 -13 -200 -22 -52 -5 -105 -10 -190 -19 -113 -12
-152 -16 -195 -19 -25 -2 -45 -5 -45 -6 0 -1 -16 -4 -35 -6 -38 -4 -103 -10
-190 -19 -30 -3 -75 -7 -100 -9 -25 -2 -45 -5 -45 -6 0 -2 -35 -6 -130 -13
-27 -3 -50 -5 -50 -6 0 -1 -22 -4 -50 -6 -68 -6 -141 -14 -195 -20 -25 -4 -60
-6 -78 -5 -18 0 -37 -2 -43 -6 -6 -3 -40 -8 -77 -10 -37 -1 -87 -6 -112 -10
-76 -12 -94 -14 -115 -14 -21 -1 -1202 -126 -1270 -135 -60 -8 -174 -18 -228
-19 -26 0 -47 -4 -47 -9 0 -4 -22 -6 -50 -4 -27 1 -50 -1 -50 -6 0 -4 -15 -7
-32 -7 -18 1 -58 -2 -88 -5 -30 -3 -77 -8 -105 -11 -27 -3 -68 -7 -90 -9 -22
-1 -44 -4 -50 -5 -5 -2 -26 -4 -45 -5 -19 -2 -39 -4 -45 -5 -5 -2 -28 -4 -50
-5 -22 -1 -42 -4 -45 -5 -3 -1 -23 -4 -45 -6 -22 -2 -67 -6 -100 -9 -33 -4
-76 -8 -95 -10 -19 -1 -35 -4 -35 -5 0 -1 -22 -4 -50 -6 -93 -7 -140 -12 -140
-14 0 -1 -22 -3 -50 -5 -27 -1 -52 -4 -55 -5 -3 -2 -14 -3 -25 -4 -18 -1 -20
-9 -24 -111 -1 -60 -5 -1226 -7 -2590 -2 -1364 -3 -2495 -4 -2513 l0 -33 -54
53 c-29 29 -70 67 -91 83 -21 17 -44 36 -51 43 -7 6 -15 12 -19 12 -3 0 -21
11 -39 25 -18 14 -37 25 -41 25 -5 0 -19 9 -31 21 -12 11 -28 22 -35 23 -8 2
-57 24 -110 49 -173 84 -424 153 -526 145 -23 -2 -43 0 -43 4 0 13 -318 0
-425 -17 -112 -17 -292 -78 -410 -138 -44 -23 -84 -40 -88 -39 -4 1 -10 -5
-13 -13 -3 -8 -10 -12 -15 -9 -5 3 -9 0 -9 -5 0 -6 -7 -11 -15 -11 -8 0 -15
-4 -15 -10 0 -5 -5 -10 -11 -10 -6 0 -38 -20 -70 -45 -33 -25 -61 -45 -64 -45
-7 0 -88 -76 -154 -144 -84 -88 -101 -106 -101 -112 0 -3 -6 -12 -13 -19 -26
-30 -37 -44 -37 -50 0 -5 -39 -64 -50 -75 -11 -11 -70 -136 -70 -147 0 -7 -4
-13 -10 -13 -5 0 -10 -9 -10 -19 0 -11 -4 -22 -10 -26 -5 -3 -7 -12 -3 -20 3
-8 0 -15 -6 -15 -6 0 -10 -3 -10 -7 1 -5 0 -11 -1 -15 -4 -13 -6 -21 -14 -65
-4 -24 -11 -43 -16 -43 -4 0 -6 -9 -3 -20 3 -11 1 -26 -5 -33 -12 -14 -10
-376 2 -417 4 -14 9 -32 11 -40 1 -8 5 -22 8 -30 4 -8 8 -24 10 -35 2 -11 9
-30 15 -42 7 -13 10 -23 7 -23 -3 0 1 -13 10 -30 8 -16 15 -31 14 -32 -2 -4
75 -162 82 -168 3 -3 16 -23 29 -45 63 -106 210 -264 339 -364 55 -44 159
-111 170 -111 5 0 11 -7 15 -15 3 -8 9 -14 13 -13 4 1 52 -20 105 -46 115 -55
319 -124 392 -132 28 -3 74 -8 101 -11 65 -7 326 -7 390 0 152 17 190 25 301
62 104 35 252 100 314 138 19 12 37 22 40 22 3 0 16 10 29 22 13 12 27 20 31
18 3 -2 24 11 46 30 21 19 42 35 46 35 4 0 18 10 31 23 144 136 189 182 217
221 19 25 37 46 42 46 4 0 8 7 8 15 0 7 6 18 13 22 6 4 21 24 31 43 11 19 22
37 26 40 7 6 91 179 88 182 -1 2 5 14 12 28 8 14 15 27 15 30 8 41 19 70 26
70 6 0 7 5 4 10 -4 6 -1 18 7 27 7 9 12 19 11 22 -2 3 0 22 4 41 7 39 10 660
13 2943 1 1304 4 1559 15 1563 8 3 41 6 74 7 34 1 61 5 61 8 0 3 17 6 38 7 20
1 57 4 82 7 77 10 143 16 195 19 28 2 50 5 50 6 0 1 18 4 40 6 22 2 63 6 90 9
28 3 70 7 95 10 25 2 65 7 90 10 25 3 65 7 90 9 25 2 45 4 45 5 0 1 27 4 60 7
74 6 120 11 120 14 0 1 20 3 45 5 117 7 235 20 235 25 0 0 43 3 95 6 52 3 99
9 106 15 6 5 13 6 16 3 6 -5 223 14 248 22 8 3 40 7 70 9 30 2 80 6 110 10
239 27 523 55 527 51 3 -3 16 -1 28 4 13 5 59 11 102 15 43 3 113 10 155 15
42 6 80 9 85 8 4 -1 22 1 38 5 17 4 64 9 105 12 41 3 93 8 115 11 22 3 66 6
97 7 32 1 58 5 58 8 0 4 15 7 33 7 17 0 61 3 97 7 36 3 84 7 107 8 24 1 43 5
43 8 0 3 19 6 43 7 39 1 73 4 187 16 56 7 128 14 200 21 30 3 75 8 100 10 25
3 63 6 85 8 22 1 45 5 50 8 6 3 29 5 53 4 23 -1 42 1 42 4 0 3 17 7 37 8 36 1
64 4 203 17 106 10 145 15 200 21 30 4 66 7 79 6 12 0 27 2 32 5 5 3 35 7 67
9 31 2 82 6 112 9 30 3 210 22 400 41 190 20 379 39 420 44 41 5 77 7 79 4 8
-6 7 -4005 -1 -4009 -3 -2 -12 1 -20 8 -13 13 -100 83 -159 128 -18 14 -34 24
-36 22 -2 -1 -13 7 -25 18 -12 11 -85 51 -162 90 -147 73 -335 140 -452 161
-60 11 -388 17 -494 10 -115 -8 -319 -67 -455 -131 -38 -18 -72 -34 -75 -34
-13 -3 -106 -61 -112 -70 -4 -6 -8 -7 -8 -2 0 6 -7 1 -15 -10 -8 -10 -15 -15
-15 -11 0 5 -15 -3 -32 -17 -46 -37 -49 -39 -87 -66 -19 -14 -51 -41 -71 -60
-21 -19 -46 -42 -56 -51 -35 -31 -114 -120 -114 -129 0 -6 -9 -15 -20 -22 -11
-7 -20 -17 -20 -23 0 -6 -14 -25 -30 -44 -17 -18 -28 -36 -25 -41 3 -4 -2 -11
-11 -14 -9 -4 -14 -9 -11 -12 3 -4 -3 -15 -13 -27 -11 -11 -17 -24 -14 -29 3
-4 0 -8 -6 -8 -6 0 -8 -4 -5 -10 3 -5 2 -10 -3 -10 -9 0 -25 -37 -23 -52 1 -5
-4 -8 -9 -8 -6 0 -10 -8 -10 -18 0 -10 -6 -26 -14 -37 -7 -11 -14 -23 -15 -27
0 -5 -1 -9 -2 -10 0 -2 -2 -11 -4 -21 -2 -10 -7 -26 -11 -35 -4 -9 -8 -24 -9
-32 -1 -8 -5 -31 -10 -50 -13 -56 -14 -86 -14 -250 0 -170 3 -216 14 -243 4
-10 5 -21 1 -24 -3 -3 -2 -11 4 -17 5 -7 12 -27 15 -46 3 -19 10 -39 14 -45 5
-5 12 -21 16 -35 9 -32 37 -94 45 -100 5 -4 18 -29 25 -50 9 -25 22 -48 37
-64 10 -11 18 -24 18 -28 0 -5 9 -18 20 -30 11 -12 20 -27 20 -34 0 -6 7 -14
15 -18 8 -3 15 -10 15 -15 0 -11 7 -19 134 -150 48 -50 92 -91 97 -91 5 0 14
-9 21 -20 7 -11 17 -20 23 -20 5 0 22 -10 37 -23 14 -12 35 -30 46 -39 11 -9
22 -14 25 -12 2 2 10 -2 17 -11 7 -8 18 -15 25 -15 7 0 15 -7 19 -15 3 -8 9
-14 13 -13 4 1 45 -17 90 -40 125 -64 302 -125 395 -137 15 -2 32 -6 37 -9 40
-25 533 -24 573 0 7 4 21 8 32 10 91 8 246 58 386 126 58 28 108 56 112 62 4
6 8 7 8 1 0 -6 3 -6 8 0 4 6 30 24 57 40 28 16 55 36 62 44 7 9 13 13 13 9 0
-5 8 0 18 10 10 9 32 28 50 41 42 32 212 201 212 212 0 4 6 12 13 16 7 4 29
31 47 58 19 28 37 52 42 53 4 2 8 10 8 17 0 8 6 20 13 27 18 21 47 78 47 94 0
8 4 14 9 14 5 0 12 10 16 23 4 12 8 25 10 30 6 18 7 22 6 30 0 4 4 7 10 7 5 0
8 3 6 8 -3 4 0 18 6 32 5 14 11 31 13 38 1 8 6 21 10 30 9 20 8 18 18 60 4 17
11 32 14 32 4 0 8 757 8 1683 1 925 3 2516 5 3535 l4 1852 -46 0 c-25 0 -49
-3 -52 -6z"/>
<path d="M8908 11535 c-2 -2 -37 -6 -78 -10 -41 -3 -95 -9 -120 -13 l-45 -7 0
-897 0 -898 117 0 118 0 0 358 0 357 168 0 c202 0 285 16 419 81 208 102 309
277 299 520 -5 117 -13 149 -53 229 -73 142 -207 231 -409 269 -66 12 -405 21
-416 11z m409 -208 c108 -36 198 -123 224 -219 21 -81 12 -206 -21 -283 -45
-103 -166 -183 -310 -206 -79 -12 -287 -6 -302 9 -4 4 -7 165 -6 358 l3 349
30 6 c61 13 328 3 382 -14z"/>
<path d="M12489 11536 c-2 -2 -41 -7 -87 -10 -46 -4 -89 -9 -95 -11 -7 -2 -23
-6 -37 -9 l-25 -5 0 -896 0 -895 117 0 118 0 0 396 0 396 153 -5 c164 -4 174
-6 239 -35 112 -50 156 -133 223 -427 27 -119 48 -192 75 -270 l18 -50 121 -3
c95 -2 121 0 121 11 0 7 -4 17 -8 23 -12 13 -75 231 -88 304 -16 86 -71 275
-97 328 -35 73 -120 165 -171 183 -20 7 -36 16 -36 19 0 3 15 11 33 18 88 32
208 136 248 215 42 80 58 153 55 245 -3 107 -9 131 -46 207 -32 65 -55 94
-122 147 -57 47 -97 65 -198 95 -76 23 -106 26 -296 29 -116 2 -213 2 -215 0z
m412 -205 c173 -55 255 -189 227 -369 -23 -145 -135 -246 -308 -277 -29 -5
-267 -10 -322 -6 -17 1 -18 24 -18 331 0 257 3 330 13 331 24 1 102 11 105 14
2 2 56 2 120 0 84 -2 135 -9 183 -24z"/>
<path d="M10153 11518 c-1 -23 -14 -232 -18 -273 -2 -22 -6 -80 -10 -130 -3
-49 -8 -115 -10 -145 -2 -30 -7 -95 -10 -145 -4 -49 -8 -112 -10 -140 -2 -27
-6 -95 -10 -150 -3 -55 -8 -122 -10 -150 -4 -50 -10 -132 -20 -280 -3 -44 -8
-102 -10 -130 -2 -27 -7 -98 -10 -157 l-7 -108 111 0 c61 0 112 3 112 8 3 18
7 76 13 187 4 66 9 143 11 170 2 28 7 95 10 150 3 55 8 129 10 165 2 36 7 117
11 180 3 63 7 142 9 175 2 33 7 139 10 235 9 255 12 300 19 307 3 4 6 -3 6
-15 0 -23 12 -69 60 -232 17 -58 37 -127 45 -155 14 -50 65 -200 249 -745 54
-157 107 -314 119 -350 l22 -65 91 -3 91 -3 206 568 c207 572 263 732 312 898
15 50 30 93 34 97 4 5 8 -58 9 -140 1 -81 4 -192 6 -247 8 -173 16 -348 21
-410 2 -33 7 -116 10 -185 3 -69 7 -147 10 -175 4 -44 8 -116 20 -350 l3 -60
116 -3 116 -3 -5 83 c-2 46 -7 119 -10 163 -3 44 -7 115 -10 158 -3 42 -7 112
-10 155 -3 42 -7 115 -10 162 -2 47 -6 121 -9 165 -4 44 -8 116 -11 160 -3 44
-7 116 -11 160 -3 44 -7 112 -9 150 -4 82 -16 277 -20 320 -2 17 -3 56 -4 88
l-1 57 -152 0 -153 0 -56 -153 c-81 -218 -177 -479 -210 -572 -16 -44 -33 -89
-38 -100 -5 -11 -24 -63 -41 -115 -18 -52 -36 -103 -41 -112 -5 -10 -9 -26 -9
-36 0 -10 -4 -22 -8 -27 -8 -9 -71 -215 -103 -335 -14 -55 -14 -56 -68 140
-47 170 -129 419 -236 720 -42 118 -107 299 -143 403 l-67 187 -151 0 c-114 0
-151 -3 -151 -12z"/>
</g>
</svg>
